Kode-Bold.ufo
<glyph name="numbersign" format="2">
  <advance width="1200"/>
  <unicode hex="0023"/>
  <outline>
    <contour>
      <point x="453" y="560" type="line"/>
      <point x="668" y="560" type="line"/>
      <point x="731" y="913" type="line"/>
      <point x="519" y="913" type="line"/>
    </contour>
    <contour>
      <point x="1155" y="1138" type="line"/>
      <point x="1155" y="913" type="line"/>
      <point x="961" y="913" type="line"/>
      <point x="895" y="560" type="line"/>
      <point x="1049" y="560" type="line"/>
      <point x="1049" y="335" type="line"/>
      <point x="855" y="335" type="line"/>
      <point x="790" y="0" type="line"/>
      <point x="565" y="0" type="line"/>
      <point x="624" y="335" type="line"/>
      <point x="413" y="335" type="line"/>
      <point x="353" y="0" type="line"/>
      <point x="124" y="0" type="line"/>
      <point x="187" y="335" type="line"/>
      <point x="34" y="335" type="line"/>
      <point x="34" y="560" type="line"/>
      <point x="228" y="560" type="line"/>
      <point x="293" y="913" type="line"/>
      <point x="140" y="913" type="line"/>
      <point x="140" y="1138" type="line"/>
      <point x="334" y="1138" type="line"/>
      <point x="397" y="1473" type="line"/>
      <point x="623" y="1473" type="line"/>
      <point x="559" y="1138" type="line"/>
      <point x="776" y="1138" type="line"/>
      <point x="836" y="1473" type="line"/>
      <point x="1065" y="1473" type="line"/>
      <point x="1001" y="1138" type="line"/>
    </contour>
  </outline>
</glyph>
<glyph name="dollar" format="2">
  <advance width="1200"/>
  <unicode hex="0024"/>
  <outline>
    <contour>
      <point x="520" y="1537" type="line"/>
      <point x="684" y="1537" type="line"/>
      <point x="684" y="1391" type="line"/>
      <point x="902" y="1391" type="line"/>
      <point x="1039" y="1184" type="line"/>
      <point x="878" y="1026" type="line"/>
      <point x="782" y="1167" type="line"/>
      <point x="684" y="1167" type="line"/>
      <point x="684" y="809" type="line"/>
      <point x="920" y="809" type="line"/>
      <point x="1080" y="569" type="line"/>
      <point x="1080" y="169" type="line"/>
      <point x="917" y="0" type="line"/>
      <point x="684" y="0" type="line"/>
      <point x="684" y="-144" type="line"/>
      <point x="520" y="-144" type="line"/>
      <point x="520" y="0" type="line"/>
      <point x="226" y="0" type="line"/>
      <point x="108" y="167" type="line"/>
      <point x="264" y="330" type="line"/>
      <point x="342" y="224" type="line"/>
      <point x="520" y="224" type="line"/>
      <point x="520" y="585" type="line"/>
      <point x="299" y="585" type="line"/>
      <point x="120" y="851" type="line"/>
      <point x="120" y="1201" type="line"/>
      <point x="303" y="1391" type="line"/>
      <point x="520" y="1391" type="line"/>
    </contour>
    <contour>
      <point x="419" y="809" type="line"/>
      <point x="520" y="809" type="line"/>
      <point x="520" y="1167" type="line"/>
      <point x="396" y="1167" type="line"/>
      <point x="360" y="1128" type="line"/>
      <point x="360" y="896" type="line"/>
    </contour>
    <contour>
      <point x="684" y="224" type="line"/>
      <point x="817" y="224" type="line"/>
      <point x="840" y="243" type="line"/>
      <point x="840" y="528" type="line"/>
      <point x="799" y="585" type="line"/>
      <point x="684" y="585" type="line"/>
    </contour>
  </outline>
</glyph>
<glyph name="percent" format="2">
  <advance width="1200"/>
  <unicode hex="0025"/>
  <outline>
    <contour>
      <point x="214" y="1207" type="line"/>
      <point x="381" y="1207" type="line"/>
      <point x="500" y="1091" type="line"/>
      <point x="500" y="922" type="line"/>
      <point x="381" y="807" type="line"/>
      <point x="214" y="807" type="line"/>
      <point x="100" y="922" type="line"/>
      <point x="100" y="1091" type="line"/>
    </contour>
    <contour>
      <point x="880" y="1353" type="line"/>
      <point x="1120" y="1353" type="line"/>
      <point x="1120" y="1046" type="line"/>
      <point x="320" y="223" type="line"/>
      <point x="320" y="0" type="line"/>
      <point x="80" y="0" type="line"/>
      <point x="80" y="294" type="line"/>
      <point x="880" y="1117" type="line"/>
    </contour>
    <contour>
      <point x="814" y="530" type="line"/>
      <point x="981" y="530" type="line"/>
      <point x="1100" y="414" type="line"/>
      <point x="1100" y="245" type="line"/>
      <point x="981" y="130" type="line"/>
      <point x="814" y="130" type="line"/>
      <point x="700" y="245" type="line"/>
      <point x="700" y="414" type="line"/>
    </contour>
  </outline>
</glyph>
<glyph name="quotesingle" format="2">
  <advance width="1200"/>
  <unicode hex="0027"/>
  <outline>
    <contour>
      <point x="480" y="880" type="line"/>
      <point x="480" y="1490" type="line"/>
      <point x="720" y="1490" type="line"/>
      <point x="720" y="880" type="line"/>
    </contour>
  </outline>
</glyph>
<glyph name="parenright" format="2">
  <advance width="1200"/>
  <unicode hex="0029"/>
  <outline>
    <contour>
      <point x="431" y="1745" type="line"/>
      <point x="1004" y="1148" type="line"/>
      <point x="1004" y="148" type="line"/>
      <point x="431" y="-449" type="line"/>
      <point x="246" y="-236" type="line"/>
      <point x="724" y="255" type="line"/>
      <point x="724" y="1041" type="line"/>
      <point x="246" y="1532" type="line"/>
    </contour>
  </outline>
</glyph>
<glyph name="period" format="2">
  <advance width="1200"/>
  <unicode hex="002E"/>
  <anchor x="601" y="-0" name="_top"/>
  <anchor x="601" y="273" name="_bottom"/>
  <outline>
    <contour>
      <point x="460" y="0" type="line"/>
      <point x="739" y="0" type="line"/>
      <point x="739" y="272" type="line"/>
      <point x="460" y="272" type="line"/>
    </contour>
  </outline>
</glyph>
<glyph name="zero" format="2">
  <advance width="1200"/>
  <unicode hex="0030"/>
  <outline>
    <contour>
      <point x="304" y="1432" type="line"/>
      <point x="904" y="1432" type="line"/>
      <point x="1080" y="1167" type="line"/>
      <point x="1080" y="190" type="line"/>
      <point x="900" y="0" type="line"/>
      <point x="300" y="0" type="line"/>
      <point x="120" y="266" type="line"/>
      <point x="120" y="1243" type="line"/>
    </contour>
    <contour>
      <point x="360" y="1168" type="line"/>
      <point x="360" y="599" type="line"/>
      <point x="840" y="1093" type="line"/>
      <point x="840" y="1121" type="line"/>
      <point x="782" y="1208" type="line"/>
      <point x="397" y="1208" type="line"/>
    </contour>
    <contour>
      <point x="360" y="306" type="line"/>
      <point x="418" y="224" type="line"/>
      <point x="803" y="224" type="line"/>
      <point x="840" y="264" type="line"/>
      <point x="840" y="816" type="line"/>
      <point x="360" y="318" type="line"/>
    </contour>
  </outline>
</glyph>
<glyph name="two" format="2">
  <advance width="1200"/>
  <unicode hex="0032"/>
  <outline>
    <contour>
      <point x="306" y="1432" type="line"/>
      <point x="908" y="1432" type="line"/>
      <point x="1080" y="1175" type="line"/>
      <point x="1080" y="979" type="line"/>
      <point x="360" y="232" type="line"/>
      <point x="360" y="224" type="line"/>
      <point x="1080" y="224" type="line"/>
      <point x="1080" y="0" type="line"/>
      <point x="120" y="0" type="line"/>
      <point x="120" y="306" type="line"/>
      <point x="857" y="1062" type="line"/>
      <point x="760" y="1208" type="line"/>
      <point x="399" y="1208" type="line"/>
      <point x="236" y="1046" type="line"/>
      <point x="109" y="1230" type="line"/>
    </contour>
  </outline>
</glyph>
<glyph name="four" format="2">
  <advance width="1200"/>
  <unicode hex="0034"/>
  <outline>
    <contour>
      <point x="689" y="1432" type="line"/>
      <point x="1001" y="1432" type="line"/>
      <point x="1001" y="664" type="line"/>
      <point x="1120" y="664" type="line"/>
      <point x="1120" y="440" type="line"/>
      <point x="1001" y="440" type="line"/>
      <point x="1001" y="0" type="line"/>
      <point x="760" y="0" type="line"/>
      <point x="760" y="440" type="line"/>
      <point x="244" y="440" type="line"/>
      <point x="31" y="751" type="line"/>
    </contour>
    <contour>
      <point x="316" y="726" type="line"/>
      <point x="358" y="664" type="line"/>
      <point x="760" y="664" type="line"/>
      <point x="760" y="1183" type="line"/>
    </contour>
  </outline>
</glyph>
<glyph name="five" format="2">
  <advance width="1200"/>
  <unicode hex="0035"/>
  <outline>
    <contour>
      <point x="120" y="1432" type="line"/>
      <point x="1040" y="1432" type="line"/>
      <point x="1040" y="1208" type="line"/>
      <point x="360" y="1208" type="line"/>
      <point x="360" y="1020" type="line"/>
      <point x="369" y="1000" type="line"/>
      <point x="841" y="1000" type="line"/>
      <point x="1080" y="650" type="line"/>
      <point x="1080" y="158" type="line"/>
      <point x="891" y="-40" type="line"/>
      <point x="120" y="-40" type="line"/>
      <point x="120" y="184" type="line"/>
      <point x="791" y="184" type="line"/>
      <point x="840" y="233" type="line"/>
      <point x="840" y="608" type="line"/>
      <point x="723" y="776" type="line"/>
      <point x="237" y="776" type="line"/>
      <point x="120" y="949" type="line"/>
    </contour>
  </outline>
</glyph>
<glyph name="six" format="2">
  <advance width="1200"/>
  <unicode hex="0036"/>
  <outline>
    <contour>
      <point x="303" y="1433" type="line"/>
      <point x="920" y="1433" type="line"/>
      <point x="920" y="1209" type="line"/>
      <point x="397" y="1209" type="line"/>
      <point x="360" y="1169" type="line"/>
      <point x="360" y="769" type="line"/>
      <point x="445" y="855" type="line"/>
      <point x="976" y="855" type="line"/>
      <point x="1080" y="700" type="line"/>
      <point x="1080" y="258" type="line"/>
      <point x="829" y="0" type="line"/>
      <point x="280" y="0" type="line"/>
      <point x="120" y="270" type="line"/>
      <point x="120" y="1243" type="line"/>
    </contour>
    <contour>
      <point x="360" y="312" type="line"/>
      <point x="421" y="224" type="line"/>
      <point x="736" y="224" type="line"/>
      <point x="840" y="332" type="line"/>
      <point x="840" y="631" type="line"/>
      <point x="538" y="631" type="line"/>
      <point x="360" y="451" type="line"/>
    </contour>
  </outline>
</glyph>
<glyph name="eight" format="2">
  <advance width="1200"/>
  <unicode hex="0038"/>
  <outline>
    <contour>
      <point x="441" y="1432" type="line"/>
      <point x="922" y="1432" type="line"/>
      <point x="1080" y="1192" type="line"/>
      <point x="1080" y="912" type="line"/>
      <point x="913" y="737" type="line"/>
      <point x="1080" y="490" type="line"/>
      <point x="1080" y="262" type="line"/>
      <point x="831" y="0" type="line"/>
      <point x="301" y="0" type="line"/>
      <point x="120" y="266" type="line"/>
      <point x="120" y="520" type="line"/>
      <point x="290" y="684" type="line"/>
      <point x="278" y="684" type="line"/>
      <point x="120" y="916" type="line"/>
      <point x="120" y="1098" type="line"/>
    </contour>
    <contour>
      <point x="360" y="961" type="line"/>
      <point x="417" y="875" type="line"/>
      <point x="731" y="875" type="line"/>
      <point x="840" y="983" type="line"/>
      <point x="840" y="1147" type="line"/>
      <point x="799" y="1208" type="line"/>
      <point x="536" y="1208" type="line"/>
      <point x="360" y="1028" type="line"/>
    </contour>
    <contour>
      <point x="360" y="311" type="line"/>
      <point x="418" y="224" type="line"/>
      <point x="731" y="224" type="line"/>
      <point x="840" y="333" type="line"/>
      <point x="840" y="445" type="line"/>
      <point x="701" y="651" type="line"/>
      <point x="555" y="651" type="line"/>
      <point x="360" y="445" type="line"/>
    </contour>
  </outline>
</glyph>
<glyph name="semicolon" format="2">
  <advance width="1200"/>
  <unicode hex="003B"/>
  <outline>
    <contour>
      <point x="420" y="722" type="line"/>
      <point x="420" y="1066" type="line"/>
      <point x="780" y="1066" type="line"/>
      <point x="780" y="722" type="line"/>
    </contour>
    <contour>
      <point x="420" y="394" type="line"/>
      <point x="780" y="394" type="line"/>
      <point x="780" y="-183" type="line"/>
      <point x="561" y="-405" type="line"/>
      <point x="434" y="-212" type="line"/>
      <point x="540" y="-101" type="line"/>
      <point x="540" y="50" type="line"/>
      <point x="420" y="50" type="line"/>
    </contour>
  </outline>
</glyph>
<glyph name="greater" format="2">
  <advance width="1200"/>
  <unicode hex="003E"/>
  <outline>
    <contour>
      <point x="363" y="1327" type="line"/>
      <point x="977" y="733" type="line"/>
      <point x="977" y="614" type="line"/>
      <point x="359" y="17" type="line"/>
      <point x="207" y="179" type="line"/>
      <point x="716" y="674" type="line"/>
      <point x="206" y="1164" type="line"/>
    </contour>
  </outline>
</glyph>
<glyph name="question" format="2">
  <advance width="1200"/>
  <unicode hex="003F"/>
  <outline>
    <contour>
      <point x="302" y="1433" type="line"/>
      <point x="898" y="1433" type="line"/>
      <point x="1171" y="1022" type="line"/>
      <point x="720" y="552" type="line"/>
      <point x="720" y="385" type="line"/>
      <point x="476" y="385" type="line"/>
      <point x="476" y="621" type="line"/>
      <point x="887" y="1045" type="line"/>
      <point x="776" y="1209" type="line"/>
      <point x="397" y="1209" type="line"/>
      <point x="153" y="958" type="line"/>
      <point x="29" y="1149" type="line"/>
    </contour>
    <contour>
      <point x="457" y="-42" type="line"/>
      <point x="457" y="221" type="line"/>
      <point x="743" y="221" type="line"/>
      <point x="743" y="-42" type="line"/>
    </contour>
  </outline>
</glyph>
<glyph name="A" format="2">
  <advance width="1200"/>
  <unicode hex="0041"/>
  <anchor x="600" y="1550" name="top"/>
  <anchor x="600" y="-150" name="bottom"/>
  <outline>
    <contour>
      <point x="507" y="1400" type="line"/>
      <point x="1040" y="1400" type="line"/>
      <point x="1040" y="0" type="line"/>
      <point x="800" y="0" type="line"/>
      <point x="800" y="600" type="line"/>
      <point x="400" y="600" type="line"/>
      <point x="400" y="0" type="line"/>
      <point x="160" y="0" type="line"/>
      <point x="160" y="1041" type="line"/>
    </contour>
    <contour>
      <point x="400" y="971" type="line"/>
      <point x="400" y="824" type="line"/>
      <point x="800" y="824" type="line"/>
      <point x="800" y="1176" type="line"/>
      <point x="598" y="1176" type="line"/>
    </contour>
  </outline>
</glyph>
<glyph name="D" format="2">
  <advance width="1200"/>
  <unicode hex="0044"/>
  <anchor x="600" y="1541" name="top"/>
  <anchor x="600" y="-150" name="bottom"/>
  <anchor x="20" y="696" name="left"/>
  <anchor x="1180" y="696" name="right"/>
  <anchor x="600" y="696" name="a5"/>
  <outline>
    <contour>
      <point x="120" y="1391" type="line"/>
      <point x="793" y="1391" type="line"/>
      <point x="1080" y="964" type="line"/>
      <point x="1080" y="190" type="line"/>
      <point x="899" y="0" type="line"/>
      <point x="120" y="0" type="line"/>
    </contour>
    <contour>
      <point x="360" y="1167" type="line"/>
      <point x="360" y="224" type="line"/>
      <point x="800" y="224" type="line"/>
      <point x="840" y="264" type="line"/>
      <point x="840" y="918" type="line"/>
      <point x="673" y="1167" type="line"/>
    </contour>
  </outline>
</glyph>
<glyph name="E" format="2">
  <advance width="1200"/>
  <unicode hex="0045"/>
  <anchor x="600" y="1541" name="top"/>
  <anchor x="600" y="-150" name="bottom"/>
  <outline>
    <contour>
      <point x="304" y="1391" type="line"/>
      <point x="1080" y="1391" type="line"/>
      <point x="1080" y="1167" type="line"/>
      <point x="397" y="1167" type="line"/>
      <point x="360" y="1127" type="line"/>
      <point x="360" y="814" type="line"/>
      <point x="820" y="814" type="line"/>
      <point x="820" y="590" type="line"/>
      <point x="360" y="590" type="line"/>
      <point x="360" y="311" type="line"/>
      <point x="418" y="224" type="line"/>
      <point x="1080" y="224" type="line"/>
      <point x="1080" y="0" type="line"/>
      <point x="299" y="0" type="line"/>
      <point x="120" y="266" type="line"/>
      <point x="120" y="1202" type="line"/>
    </contour>
  </outline>
</glyph>
<glyph name="F" format="2">
  <advance width="1200"/>
  <unicode hex="0046"/>
  <anchor x="600" y="1541" name="top"/>
  <anchor x="280" y="-150" name="bottom"/>
  <outline>
    <contour>
      <point x="378" y="1391" type="line"/>
      <point x="1040" y="1391" type="line"/>
      <point x="1040" y="1167" type="line"/>
      <point x="471" y="1167" type="line"/>
      <point x="400" y="1093" type="line"/>
      <point x="400" y="816" type="line"/>
      <point x="820" y="816" type="line"/>
      <point x="820" y="592" type="line"/>
      <point x="400" y="592" type="line"/>
      <point x="400" y="0" type="line"/>
      <point x="160" y="0" type="line"/>
      <point x="160" y="1168" type="line"/>
    </contour>
  </outline>
</glyph>
<glyph name="I" format="2">
  <advance width="1200"/>
  <unicode hex="0049"/>
  <anchor x="606" y="1541" name="top"/>
  <anchor x="600" y="-150" name="bottom"/>
  <outline>
    <contour>
      <point x="120" y="1391" type="line"/>
      <point x="541" y="1391" type="line"/>
      <point x="606" y="1299" type="line"/>
      <point x="693" y="1391" type="line"/>
      <point x="1080" y="1391" type="line"/>
      <point x="1080" y="1166" type="line"/>
      <point x="786" y="1166" type="line"/>
      <point x="720" y="1097" type="line"/>
      <point x="720" y="225" type="line"/>
      <point x="1080" y="225" type="line"/>
      <point x="1080" y="0" type="line"/>
      <point x="120" y="0" type="line"/>
      <point x="120" y="225" type="line"/>
      <point x="480" y="225" type="line"/>
      <point x="480" y="1079" type="line"/>
      <point x="422" y="1166" type="line"/>
      <point x="120" y="1166" type="line"/>
    </contour>
  </outline>
</glyph>
<glyph name="J" format="2">
  <advance width="1200"/>
  <unicode hex="004A"/>
  <anchor x="824" y="1541" name="top"/>
  <anchor x="540" y="-296" name="bottom"/>
  <outline>
    <contour>
      <point x="120" y="1391" type="line"/>
      <point x="782" y="1391" type="line"/>
      <point x="960" y="1125" type="line"/>
      <point x="960" y="215" type="line"/>
      <point x="617" y="-146" type="line"/>
      <point x="280" y="-146" type="line"/>
      <point x="280" y="78" type="line"/>
      <point x="521" y="78" type="line"/>
      <point x="720" y="288" type="line"/>
      <point x="720" y="1083" type="line"/>
      <point x="664" y="1167" type="line"/>
      <point x="120" y="1167" type="line"/>
    </contour>
  </outline>
</glyph>
<glyph name="K" format="2">
  <advance width="1200"/>
  <unicode hex="004B"/>
  <anchor x="600" y="1541" name="top"/>
  <anchor x="600" y="-150" name="bottom"/>
  <outline>
    <contour>
      <point x="806" y="1391" type="line"/>
      <point x="1125" y="1391" type="line"/>
      <point x="583" y="830" type="line"/>
      <point x="1136" y="0" type="line"/>
      <point x="870" y="0" type="line"/>
      <point x="413" y="668" type="line"/>
      <point x="304" y="560" type="line"/>
      <point x="304" y="0" type="line"/>
      <point x="64" y="0" type="line"/>
      <point x="64" y="1391" type="line"/>
      <point x="304" y="1391" type="line"/>
      <point x="304" y="885" type="line"/>
    </contour>
  </outline>
</glyph>
<glyph name="P" format="2">
  <advance width="1200"/>
  <unicode hex="0050"/>
  <anchor x="600" y="1542" name="top"/>
  <anchor x="600" y="-150" name="bottom"/>
  <outline>
    <contour>
      <point x="120" y="1392" type="line"/>
      <point x="904" y="1392" type="line"/>
      <point x="1080" y="1125" type="line"/>
      <point x="1080" y="774" type="line"/>
      <point x="899" y="589" type="line"/>
      <point x="360" y="589" type="line"/>
      <point x="360" y="0" type="line"/>
      <point x="120" y="0" type="line"/>
    </contour>
    <contour>
      <point x="360" y="1168" type="line"/>
      <point x="360" y="744" type="line"/>
      <point x="471" y="809" type="line"/>
      <point x="803" y="809" type="line"/>
      <point x="840" y="848" type="line"/>
      <point x="840" y="1080" type="line"/>
      <point x="782" y="1168" type="line"/>
    </contour>
  </outline>
</glyph>
<glyph name="R" format="2">
  <advance width="1200"/>
  <unicode hex="0052"/>
  <anchor x="600" y="1541" name="top"/>
  <anchor x="600" y="-150" name="bottom"/>
  <outline>
    <contour>
      <point x="120" y="1391" type="line"/>
      <point x="848" y="1391" type="line"/>
      <point x="1080" y="1051" type="line"/>
      <point x="1080" y="819" type="line"/>
      <point x="897" y="630" type="line"/>
      <point x="1080" y="362" type="line"/>
      <point x="1080" y="0" type="line"/>
      <point x="840" y="0" type="line"/>
      <point x="840" y="320" type="line"/>
      <point x="659" y="585" type="line"/>
      <point x="466" y="585" type="line"/>
      <point x="360" y="650" type="line"/>
      <point x="360" y="0" type="line"/>
      <point x="120" y="0" type="line"/>
    </contour>
    <contour>
      <point x="360" y="1167" type="line"/>
      <point x="360" y="809" type="line"/>
      <point x="761" y="809" type="line"/>
      <point x="840" y="888" type="line"/>
      <point x="840" y="1004" type="line"/>
      <point x="727" y="1167" type="line"/>
    </contour>
  </outline>
</glyph>
<glyph name="S" format="2">
  <advance width="1200"/>
  <unicode hex="0053"/>
  <anchor x="594" y="1541" name="top"/>
  <anchor x="594" y="-150" name="bottom"/>
  <outline>
    <contour>
      <point x="303" y="1391" type="line"/>
      <point x="902" y="1391" type="line"/>
      <point x="1039" y="1184" type="line"/>
      <point x="878" y="1026" type="line"/>
      <point x="782" y="1167" type="line"/>
      <point x="396" y="1167" type="line"/>
      <point x="360" y="1128" type="line"/>
      <point x="360" y="896" type="line"/>
      <point x="419" y="809" type="line"/>
      <point x="920" y="809" type="line"/>
      <point x="1080" y="569" type="line"/>
      <point x="1080" y="169" type="line"/>
      <point x="917" y="0" type="line"/>
      <point x="226" y="0" type="line"/>
      <point x="108" y="167" type="line"/>
      <point x="264" y="330" type="line"/>
      <point x="342" y="224" type="line"/>
      <point x="817" y="224" type="line"/>
      <point x="840" y="243" type="line"/>
      <point x="840" y="528" type="line"/>
      <point x="799" y="585" type="line"/>
      <point x="299" y="585" type="line"/>
      <point x="120" y="851" type="line"/>
      <point x="120" y="1201" type="line"/>
    </contour>
  </outline>
</glyph>
<glyph name="T" format="2">
  <advance width="1200"/>
  <unicode hex="0054"/>
  <anchor x="600" y="1541" name="top"/>
  <anchor x="600" y="-150" name="bottom"/>
  <anchor x="600" y="596" name="middleTop"/>
  <outline>
    <contour>
      <point x="80" y="1391" type="line"/>
      <point x="1120" y="1391" type="line"/>
      <point x="1120" y="1167" type="line"/>
      <point x="668" y="1167" type="line"/>
      <point x="720" y="1135" type="line"/>
      <point x="720" y="0" type="line"/>
      <point x="480" y="0" type="line"/>
      <point x="480" y="1079" type="line"/>
      <point x="422" y="1167" type="line"/>
      <point x="80" y="1167" type="line"/>
    </contour>
  </outline>
</glyph>
<glyph name="U" format="2">
  <advance width="1200"/>
  <unicode hex="0055"/>
  <anchor x="600" y="1541" name="top"/>
  <anchor x="600" y="-150" name="bottom"/>
  <outline>
    <contour>
      <point x="840" y="1391" type="line"/>
      <point x="1080" y="1391" type="line"/>
      <point x="1080" y="0" type="line"/>
      <point x="840" y="0" type="line"/>
      <point x="840" y="67" type="line"/>
      <point x="731" y="0" type="line"/>
      <point x="300" y="0" type="line"/>
      <point x="120" y="266" type="line"/>
      <point x="120" y="1391" type="line"/>
      <point x="360" y="1391" type="line"/>
      <point x="360" y="311" type="line"/>
      <point x="418" y="224" type="line"/>
      <point x="800" y="224" type="line"/>
      <point x="840" y="264" type="line"/>
    </contour>
  </outline>
</glyph>
<glyph name="V" format="2">
  <advance width="1200"/>
  <unicode hex="0056"/>
  <anchor x="600" y="1541" name="top"/>
  <anchor x="552" y="-150" name="bottom"/>
  <outline>
    <contour>
      <point x="840" y="1391" type="line"/>
      <point x="1080" y="1391" type="line"/>
      <point x="1080" y="474" type="line"/>
      <point x="624" y="0" type="line"/>
      <point x="447" y="0" type="line"/>
      <point x="120" y="485" type="line"/>
      <point x="120" y="1391" type="line"/>
      <point x="360" y="1391" type="line"/>
      <point x="360" y="531" type="line"/>
      <point x="551" y="246" type="line"/>
      <point x="840" y="546" type="line"/>
    </contour>
  </outline>
</glyph>
<glyph name="Z" format="2">
  <advance width="1200"/>
  <unicode hex="005A"/>
  <anchor x="600" y="1541" name="top"/>
  <anchor x="600" y="-150" name="bottom"/>
  <outline>
    <contour>
      <point x="120" y="1391" type="line"/>
      <point x="1080" y="1391" type="line"/>
      <point x="1080" y="1003" type="line"/>
      <point x="940" y="855" type="line"/>
      <point x="961" y="855" type="line"/>
      <point x="961" y="631" type="line"/>
      <point x="687" y="631" type="line"/>
      <point x="706" y="619" type="line"/>
      <point x="360" y="260" type="line"/>
      <point x="360" y="224" type="line"/>
      <point x="1080" y="224" type="line"/>
      <point x="1080" y="0" type="line"/>
      <point x="120" y="0" type="line"/>
      <point x="120" y="330" type="line"/>
      <point x="410" y="631" type="line"/>
      <point x="360" y="631" type="line"/>
      <point x="360" y="855" type="line"/>
      <point x="668" y="855" type="line"/>
      <point x="644" y="871" type="line"/>
      <point x="840" y="1077" type="line"/>
      <point x="840" y="1167" type="line"/>
      <point x="120" y="1167" type="line"/>
    </contour>
  </outline>
</glyph>
<glyph name="bracketleft" format="2">
  <advance width="1200"/>
  <unicode hex="005B"/>
  <outline>
    <contour>
      <point x="282" y="1673" type="line"/>
      <point x="918" y="1673" type="line"/>
      <point x="918" y="1447" type="line"/>
      <point x="520" y="1447" type="line"/>
      <point x="520" y="-101" type="line"/>
      <point x="918" y="-101" type="line"/>
      <point x="918" y="-327" type="line"/>
      <point x="282" y="-327" type="line"/>
    </contour>
  </outline>
</glyph>
<glyph name="bracketright" format="2">
  <advance width="1200"/>
  <unicode hex="005D"/>
  <outline>
    <contour>
      <point x="280" y="1670" type="line"/>
      <point x="920" y="1670" type="line"/>
      <point x="920" y="-330" type="line"/>
      <point x="280" y="-330" type="line"/>
      <point x="280" y="-100" type="line"/>
      <point x="680" y="-100" type="line"/>
      <point x="680" y="1440" type="line"/>
      <point x="280" y="1440" type="line"/>
    </contour>
  </outline>
</glyph>
<glyph name="asciicircum" format="2">
  <advance width="1200"/>
  <unicode hex="005E"/>
  <outline>
    <contour>
      <point x="543" y="1680" type="line"/>
      <point x="657" y="1680" type="line"/>
      <point x="1200" y="1119" type="line"/>
      <point x="1042" y="959" type="line"/>
      <point x="600" y="1420" type="line"/>
      <point x="158" y="959" type="line"/>
      <point x="0" y="1119" type="line"/>
    </contour>
  </outline>
</glyph>
<glyph name="underscore" format="2">
  <advance width="1200"/>
  <unicode hex="005F"/>
  <outline>
    <contour>
      <point x="1139" y="-384" type="line"/>
      <point x="60" y="-384" type="line"/>
      <point x="60" y="-160" type="line"/>
      <point x="1139" y="-160" type="line"/>
    </contour>
  </outline>
</glyph>
<glyph name="grave" format="2">
  <advance width="1200"/>
  <unicode hex="0060"/>
  <anchor x="600" y="1240" name="_top"/>
  <anchor x="600" y="1650" name="_bottom"/>
  <outline>
    <contour>
      <point x="768" y="1240" type="line"/>
      <point x="309" y="1461" type="line"/>
      <point x="438" y="1648" type="line"/>
      <point x="852" y="1377" type="line"/>
    </contour>
  </outline>
</glyph>
<glyph name="b" format="2">
  <advance width="1200"/>
  <unicode hex="0062"/>
  <anchor x="600" y="1678" name="top"/>
  <anchor x="600" y="-150" name="bottom"/>
  <outline>
    <contour>
      <point x="120" y="1528" type="line"/>
      <point x="360" y="1528" type="line"/>
      <point x="360" y="1032" type="line"/>
      <point x="467" y="1097" type="line"/>
      <point x="899" y="1097" type="line"/>
      <point x="1080" y="828" type="line"/>
      <point x="1080" y="192" type="line"/>
      <point x="895" y="0" type="line"/>
      <point x="472" y="0" type="line"/>
      <point x="360" y="65" type="line"/>
      <point x="360" y="0" type="line"/>
      <point x="120" y="0" type="line"/>
    </contour>
    <contour>
      <point x="360" y="832" type="line"/>
      <point x="360" y="225" type="line"/>
      <point x="803" y="225" type="line"/>
      <point x="840" y="264" type="line"/>
      <point x="840" y="785" type="line"/>
      <point x="781" y="872" type="line"/>
      <point x="400" y="872" type="line"/>
    </contour>
  </outline>
</glyph>
<glyph name="c" format="2">
  <advance width="1200"/>
  <unicode hex="0063"/>
  <anchor x="591" y="1250" name="top"/>
  <anchor x="591" y="-150" name="bottom"/>
  <outline>
    <contour>
      <point x="297" y="1100" type="line"/>
      <point x="896" y="1100" type="line"/>
      <point x="1061" y="855" type="line"/>
      <point x="906" y="695" type="line"/>
      <point x="787" y="869" type="line"/>
      <point x="404" y="869" type="line"/>
      <point x="360" y="824" type="line"/>
      <point x="360" y="297" type="line"/>
      <point x="423" y="204" type="line"/>
      <point x="806" y="204" type="line"/>
      <point x="941" y="343" type="line"/>
      <point x="1057" y="170" type="line"/>
      <point x="893" y="0" type="line"/>
      <point x="295" y="0" type="line"/>
      <point x="120" y="260" type="line"/>
      <point x="120" y="917" type="line"/>
    </contour>
  </outline>
</glyph>
<glyph name="d" format="2">
  <advance width="1200"/>
  <unicode hex="0064"/>
  <anchor x="600" y="1678" name="top"/>
  <anchor x="600" y="-150" name="bottom"/>
  <anchor x="20" y="764" name="left"/>
  <anchor x="1180" y="764" name="right"/>
  <anchor x="804" y="1190" name="middleTop"/>
  <outline>
    <contour>
      <point x="840" y="1528" type="line"/>
      <point x="1080" y="1528" type="line"/>
      <point x="1080" y="0" type="line"/>
      <point x="840" y="0" type="line"/>
      <point x="840" y="65" type="line"/>
      <point x="732" y="0" type="line"/>
      <point x="303" y="0" type="line"/>
      <point x="120" y="268" type="line"/>
      <point x="120" y="905" type="line"/>
      <point x="303" y="1097" type="line"/>
      <point x="732" y="1097" type="line"/>
      <point x="840" y="1032" type="line"/>
    </contour>
    <contour>
      <point x="360" y="311" type="line"/>
      <point x="418" y="225" type="line"/>
      <point x="804" y="225" type="line"/>
      <point x="840" y="261" type="line"/>
      <point x="840" y="786" type="line"/>
      <point x="782" y="872" type="line"/>
      <point x="400" y="872" type="line"/>
      <point x="360" y="832" type="line"/>
    </contour>
  </outline>
</glyph>
<glyph name="e" format="2">
  <advance width="1200"/>
  <unicode hex="0065"/>
  <anchor x="592" y="1249" name="top"/>
  <anchor x="592" y="-150" name="bottom"/>
  <outline>
    <contour>
      <point x="296" y="1099" type="line"/>
      <point x="883" y="1099" type="line"/>
      <point x="1064" y="830" type="line"/>
      <point x="713" y="467" type="line"/>
      <point x="348" y="467" type="line"/>
      <point x="348" y="325" type="line"/>
      <point x="412" y="230" type="line"/>
      <point x="795" y="230" type="line"/>
      <point x="904" y="344" type="line"/>
      <point x="1043" y="169" type="line"/>
      <point x="880" y="0" type="line"/>
      <point x="294" y="0" type="line"/>
      <point x="120" y="258" type="line"/>
      <point x="120" y="916" type="line"/>
    </contour>
    <contour>
      <point x="348" y="822" type="line"/>
      <point x="348" y="668" type="line"/>
      <point x="625" y="668" type="line"/>
      <point x="772" y="823" type="line"/>
      <point x="741" y="869" type="line"/>
      <point x="394" y="869" type="line"/>
    </contour>
  </outline>
</glyph>
<glyph name="k" format="2">
  <advance width="1200"/>
  <unicode hex="006B"/>
  <anchor x="600" y="1637" name="top"/>
  <anchor x="600" y="-150" name="bottom"/>
  <outline>
    <contour>
      <point x="120" y="1487" type="line"/>
      <point x="360" y="1487" type="line"/>
      <point x="360" y="784" type="line"/>
      <point x="722" y="1160" type="line"/>
      <point x="1038" y="1160" type="line"/>
      <point x="688" y="805" type="line"/>
      <point x="1080" y="225" type="line"/>
      <point x="1080" y="0" type="line"/>
      <point x="840" y="0" type="line"/>
      <point x="840" y="183" type="line"/>
      <point x="528" y="638" type="line"/>
      <point x="360" y="465" type="line"/>
      <point x="360" y="0" type="line"/>
      <point x="120" y="0" type="line"/>
    </contour>
  </outline>
</glyph>
<glyph name="l" format="2">
  <advance width="1200"/>
  <unicode hex="006C"/>
  <anchor x="515" y="1638" name="top"/>
  <anchor x="515" y="-150" name="bottom"/>
  <anchor x="100" y="744" name="left"/>
  <anchor x="1089" y="744" name="right"/>
  <outline>
    <contour>
      <point x="200" y="1488" type="line"/>
      <point x="410" y="1488" type="line"/>
      <point x="599" y="1376" type="line"/>
      <point x="599" y="308" type="line"/>
      <point x="655" y="223" type="line"/>
      <point x="894" y="223" type="line"/>
      <point x="989" y="0" type="line"/>
      <point x="538" y="0" type="line"/>
      <point x="359" y="264" type="line"/>
      <point x="359" y="1265" type="line"/>
      <point x="200" y="1265" type="line"/>
    </contour>
  </outline>
</glyph>
<glyph name="m" format="2">
  <advance width="1200"/>
  <unicode hex="006D"/>
  <anchor x="600" y="1246" name="top"/>
  <anchor x="600" y="-150" name="bottom"/>
  <outline>
    <contour>
      <point x="80" y="1096" type="line"/>
      <point x="320" y="1096" type="line"/>
      <point x="320" y="1031" type="line"/>
      <point x="428" y="1096" type="line"/>
      <point x="543" y="1096" type="line"/>
      <point x="626" y="973" type="line"/>
      <point x="830" y="1096" type="line"/>
      <point x="941" y="1096" type="line"/>
      <point x="1120" y="831" type="line"/>
      <point x="1120" y="0" type="line"/>
      <point x="880" y="0" type="line"/>
      <point x="880" y="787" type="line"/>
      <point x="823" y="872" type="line"/>
      <point x="759" y="872" type="line"/>
      <point x="722" y="832" type="line"/>
      <point x="722" y="550" type="line"/>
      <point x="482" y="550" type="line"/>
      <point x="482" y="787" type="line"/>
      <point x="425" y="872" type="line"/>
      <point x="357" y="872" type="line"/>
      <point x="320" y="832" type="line"/>
      <point x="320" y="0" type="line"/>
      <point x="80" y="0" type="line"/>
    </contour>
  </outline>
</glyph>
<glyph name="p" format="2">
  <advance width="1200"/>
  <unicode hex="0070"/>
  <anchor x="600" y="1246" name="top"/>
  <anchor x="600" y="-581" name="bottom"/>
  <outline>
    <contour>
      <point x="467" y="1096" type="line"/>
      <point x="905" y="1096" type="line"/>
      <point x="1080" y="830" type="line"/>
      <point x="1080" y="190" type="line"/>
      <point x="898" y="0" type="line"/>
      <point x="469" y="0" type="line"/>
      <point x="360" y="65" type="line"/>
      <point x="360" y="-431" type="line"/>
      <point x="120" y="-431" type="line"/>
      <point x="120" y="1096" type="line"/>
      <point x="360" y="1096" type="line"/>
      <point x="360" y="1031" type="line"/>
    </contour>
    <contour>
      <point x="360" y="311" type="line"/>
      <point x="419" y="224" type="line"/>
      <point x="804" y="224" type="line"/>
      <point x="840" y="262" type="line"/>
      <point x="840" y="785" type="line"/>
      <point x="783" y="872" type="line"/>
      <point x="398" y="872" type="line"/>
      <point x="360" y="833" type="line"/>
    </contour>
  </outline>
</glyph>
<glyph name="r" format="2">
  <advance width="1200"/>
  <unicode hex="0072"/>
  <anchor x="617" y="1246" name="top"/>
  <anchor x="617" y="-150" name="bottom"/>
  <outline>
    <contour>
      <point x="120" y="1096" type="line"/>
      <point x="258" y="1096" type="line"/>
      <point x="430" y="994" type="line"/>
      <point x="528" y="1096" type="line"/>
      <point x="977" y="1096" type="line"/>
      <point x="1113" y="893" type="line"/>
      <point x="928" y="767" type="line"/>
      <point x="859" y="872" type="line"/>
      <point x="624" y="872" type="line"/>
      <point x="560" y="805" type="line"/>
      <point x="560" y="224" type="line"/>
      <point x="840" y="224" type="line"/>
      <point x="840" y="0" type="line"/>
      <point x="120" y="0" type="line"/>
      <point x="120" y="224" type="line"/>
      <point x="320" y="224" type="line"/>
      <point x="320" y="787" type="line"/>
      <point x="263" y="872" type="line"/>
      <point x="120" y="872" type="line"/>
    </contour>
  </outline>
</glyph>
<glyph name="w" format="2">
  <advance width="1200"/>
  <unicode hex="0077"/>
  <anchor x="600" y="1246" name="top"/>
  <anchor x="600" y="-150" name="bottom"/>
  <outline>
    <contour>
      <point x="920" y="1096" type="line"/>
      <point x="1160" y="1096" type="line"/>
      <point x="1160" y="311" type="line"/>
      <point x="860" y="0" type="line"/>
      <point x="676" y="0" type="line"/>
      <point x="613" y="117" type="line"/>
      <point x="499" y="0" type="line"/>
      <point x="320" y="0" type="line"/>
      <point x="40" y="414" type="line"/>
      <point x="40" y="1096" type="line"/>
      <point x="280" y="1096" type="line"/>
      <point x="280" y="458" type="line"/>
      <point x="415" y="275" type="line"/>
      <point x="424" y="275" type="line"/>
      <point x="475" y="333" type="line"/>
      <point x="475" y="1096" type="line"/>
      <point x="715" y="1096" type="line"/>
      <point x="715" y="376" type="line"/>
      <point x="776" y="285" type="line"/>
      <point x="782" y="285" type="line"/>
      <point x="920" y="434" type="line"/>
    </contour>
  </outline>
</glyph>
<glyph name="braceleft" format="2">
  <advance width="1200"/>
  <unicode hex="007B"/>
  <outline>
    <contour>
      <point x="522" y="1673" type="line"/>
      <point x="918" y="1673" type="line"/>
      <point x="918" y="1447" type="line"/>
      <point x="643" y="1447" type="line"/>
      <point x="643" y="979" type="line"/>
      <point x="343" y="673" type="line"/>
      <point x="643" y="367" type="line"/>
      <point x="643" y="-101" type="line"/>
      <point x="918" y="-101" type="line"/>
      <point x="918" y="-327" type="line"/>
      <point x="522" y="-327" type="line"/>
      <point x="399" y="-198" type="line"/>
      <point x="399" y="294" type="line"/>
      <point x="32" y="673" type="line"/>
      <point x="399" y="1052" type="line"/>
      <point x="399" y="1544" type="line"/>
    </contour>
  </outline>
</glyph>
<glyph name="braceright" format="2">
  <advance width="1200"/>
  <unicode hex="007D"/>
  <outline>
    <contour>
      <point x="282" y="1673" type="line"/>
      <point x="678" y="1673" type="line"/>
      <point x="801" y="1544" type="line"/>
      <point x="801" y="1052" type="line"/>
      <point x="1168" y="673" type="line"/>
      <point x="801" y="294" type="line"/>
      <point x="801" y="-198" type="line"/>
      <point x="678" y="-327" type="line"/>
      <point x="282" y="-327" type="line"/>
      <point x="282" y="-101" type="line"/>
      <point x="563" y="-101" type="line"/>
      <point x="563" y="367" type="line"/>
      <point x="857" y="673" type="line"/>
      <point x="563" y="979" type="line"/>
      <point x="563" y="1447" type="line"/>
      <point x="282" y="1447" type="line"/>
    </contour>
  </outline>
</glyph>
<glyph name="exclamdown" format="2">
  <advance width="1200"/>
  <unicode hex="00A1"/>
  <outline>
    <contour>
      <point x="743" y="878" type="line"/>
      <point x="457" y="878" type="line"/>
      <point x="457" y="1141" type="line"/>
      <point x="743" y="1141" type="line"/>
    </contour>
    <contour>
      <point x="480" y="754" type="line"/>
      <point x="724" y="754" type="line"/>
      <point x="724" y="-334" type="line"/>
      <point x="480" y="-334" type="line"/>
    </contour>
  </outline>
</glyph>
<glyph name="sterling" format="2">
  <advance width="1200"/>
  <unicode hex="00A3"/>
  <outline>
    <contour>
      <point x="419.545" y="1472" type="line"/>
      <point x="1091.05" y="1472" type="line"/>
      <point x="1091.05" y="1103" type="line"/>
      <point x="851.05" y="1103" type="line"/>
      <point x="851.05" y="1248" type="line"/>
      <point x="539.889" y="1248" type="line"/>
      <point x="481" y="1162.36" type="line"/>
      <point x="481" y="853.85" type="line"/>
      <point x="859.85" y="853.85" type="line"/>
      <point x="859.85" y="629.85" type="line"/>
      <point x="481" y="629.85" type="line"/>
      <point x="481" y="272.995" type="line"/>
      <point x="448.031" y="224" type="line"/>
      <point x="1088" y="224" type="line"/>
      <point x="1088" y="0" type="line"/>
      <point x="60" y="0" type="line"/>
      <point x="60" y="224" type="line"/>
      <point x="179.016" y="224" type="line"/>
      <point x="237.85" y="309.163" type="line"/>
      <point x="237.85" y="629.85" type="line"/>
      <point x="99.85" y="629.85" type="line"/>
      <point x="99.85" y="853.85" type="line"/>
      <point x="237.85" y="853.85" type="line"/>
      <point x="237.85" y="1198.37" type="line"/>
    </contour>
  </outline>
</glyph>
<glyph name="currency" format="2">
  <advance width="1200"/>
  <unicode hex="00A4"/>
  <outline>
    <contour>
      <point x="918" y="1198" type="line"/>
      <point x="1075" y="1039" type="line"/>
      <point x="933" y="897" type="line"/>
      <point x="958" y="872" type="line"/>
      <point x="958" y="577" type="line"/>
      <point x="932" y="548" type="line"/>
      <point x="1076" y="408" type="line"/>
      <point x="918" y="250" type="line"/>
      <point x="775" y="389" type="line"/>
      <point x="751" y="364" type="line"/>
      <point x="449" y="364" type="line"/>
      <point x="425" y="389" type="line"/>
      <point x="282" y="250" type="line"/>
      <point x="124" y="408" type="line"/>
      <point x="268" y="548" type="line"/>
      <point x="242" y="577" type="line"/>
      <point x="242" y="872" type="line"/>
      <point x="267" y="897" type="line"/>
      <point x="125" y="1039" type="line"/>
      <point x="282" y="1198" type="line"/>
      <point x="425" y="1055" type="line"/>
      <point x="449" y="1079" type="line"/>
      <point x="751" y="1079" type="line"/>
      <point x="775" y="1055" type="line"/>
    </contour>
    <contour>
      <point x="657" y="864" type="line"/>
      <point x="540" y="864" type="line"/>
      <point x="461" y="783" type="line"/>
      <point x="461" y="664" type="line"/>
      <point x="540" y="583" type="line"/>
      <point x="657" y="583" type="line"/>
      <point x="739" y="665" type="line"/>
      <point x="739" y="782" type="line"/>
    </contour>
  </outline>
</glyph>
<glyph name="brokenbar" format="2">
  <advance width="1200"/>
  <unicode hex="00A6"/>
  <outline>
    <contour>
      <point x="720" y="1632" type="line"/>
      <point x="720" y="880" type="line"/>
      <point x="480" y="880" type="line"/>
      <point x="480" y="1632" type="line"/>
    </contour>
    <contour>
      <point x="720" y="560" type="line"/>
      <point x="720" y="-192" type="line"/>
      <point x="480" y="-192" type="line"/>
      <point x="480" y="560" type="line"/>
    </contour>
  </outline>
</glyph>
<glyph name="section" format="2">
  <advance width="1200"/>
  <unicode hex="00A7"/>
  <outline>
    <contour>
      <point x="336" y="1552.25" type="line"/>
      <point x="861" y="1552.25" type="line"/>
      <point x="995" y="1354.25" type="line"/>
      <point x="841" y="1193.25" type="line"/>
      <point x="746" y="1332.25" type="line"/>
      <point x="435" y="1332.25" type="line"/>
      <point x="400" y="1301.25" type="line"/>
      <point x="400" y="1180.25" type="line"/>
      <point x="455" y="1100.25" type="line"/>
      <point x="864" y="1100.25" type="line"/>
      <point x="1020" y="869.25" type="line"/>
      <point x="1020" y="595.25" type="line"/>
      <point x="946.825" y="514.202" type="line"/>
      <point x="1015" y="413.25" type="line"/>
      <point x="1015" y="175.25" type="line"/>
      <point x="857" y="0.25" type="line"/>
      <point x="252" y="0.25" type="line"/>
      <point x="144" y="168.25" type="line"/>
      <point x="299" y="327.25" type="line"/>
      <point x="368" y="224.25" type="line"/>
      <point x="755" y="224.25" type="line"/>
      <point x="775" y="246.25" type="line"/>
      <point x="775" y="365.25" type="line"/>
      <point x="736" y="420.25" type="line"/>
      <point x="326" y="420.25" type="line"/>
      <point x="155" y="676.25" type="line"/>
      <point x="155" y="925.25" type="line"/>
      <point x="241.883" y="1009.66" type="line"/>
      <point x="160" y="1132.25" type="line"/>
      <point x="160" y="1381.25" type="line"/>
    </contour>
    <contour>
      <point x="450" y="644.25" type="line"/>
      <point x="760" y="644.25" type="line"/>
      <point x="780" y="666.25" type="line"/>
      <point x="780" y="819.187" type="line"/>
      <point x="741" y="876.25" type="line"/>
      <point x="430" y="876.25" type="line"/>
      <point x="395" y="845.25" type="line"/>
      <point x="395" y="724.25" type="line"/>
    </contour>
  </outline>
</glyph>
<glyph name="ordfeminine" format="2">
  <advance width="1200"/>
  <unicode hex="00AA"/>
  <outline>
    <contour>
      <point x="310" y="1548" type="line"/>
      <point x="847" y="1548" type="line"/>
      <point x="960" y="1382" type="line"/>
      <point x="960" y="626" type="line"/>
      <point x="765" y="626" type="line"/>
      <point x="765" y="680" type="line"/>
      <point x="677" y="626" type="line"/>
      <point x="325" y="626" type="line"/>
      <point x="180" y="842" type="line"/>
      <point x="180" y="927" type="line"/>
      <point x="441" y="1198" type="line"/>
      <point x="765" y="1198" type="line"/>
      <point x="765" y="1368" type="line"/>
      <point x="310" y="1368" type="line"/>
    </contour>
    <contour>
      <point x="389" y="878" type="line"/>
      <point x="420" y="809" type="line"/>
      <point x="765" y="809" type="line"/>
      <point x="765" y="1015" type="line"/>
      <point x="519" y="1015" type="line"/>
      <point x="389" y="881" type="line"/>
    </contour>
  </outline>
</glyph>
<glyph name="guillemotleft" format="2">
  <advance width="1200"/>
  <unicode hex="00AB"/>
  <outline>
    <contour>
      <point x="1073" y="163" type="line"/>
      <point x="937" y="81" type="line"/>
      <point x="569" y="527" type="line"/>
      <point x="569" y="653" type="line"/>
      <point x="937" y="1103" type="line"/>
      <point x="1073" y="1019" type="line"/>
      <point x="795" y="591" type="line"/>
    </contour>
    <contour>
      <point x="631" y="163" type="line"/>
      <point x="495" y="81" type="line"/>
      <point x="127" y="527" type="line"/>
      <point x="127" y="653" type="line"/>
      <point x="496" y="1103" type="line"/>
      <point x="631" y="1019" type="line"/>
      <point x="353" y="591" type="line"/>
    </contour>
  </outline>
</glyph>
<glyph name="paragraph" format="2">
  <advance width="1200"/>
  <unicode hex="00B6"/>
  <outline>
    <contour>
      <point x="289.15" y="1526.25" type="line"/>
      <point x="1093.85" y="1526.25" type="line"/>
      <point x="1093.85" y="0" type="line"/>
      <point x="943.85" y="0" type="line"/>
      <point x="943.85" y="1303" type="line"/>
      <point x="852.3" y="1303" type="line"/>
      <point x="852.3" y="0" type="line"/>
      <point x="612.3" y="0" type="line"/>
      <point x="612.3" y="496" type="line"/>
      <point x="503.3" y="431" type="line"/>
      <point x="285.15" y="431" type="line"/>
      <point x="106.15" y="698" type="line"/>
      <point x="106.15" y="1338" type="line"/>
    </contour>
  </outline>
</glyph>
<glyph name="periodcentered" format="2">
  <advance width="1200"/>
  <unicode hex="00B7"/>
  <anchor x="600" y="876" name="_top"/>
  <anchor x="425" y="700" name="_left"/>
  <anchor x="776" y="700" name="_right"/>
  <anchor x="600" y="541" name="_bottom"/>
  <outline>
    <contour>
      <point x="425" y="540" type="line"/>
      <point x="425" y="875" type="line"/>
      <point x="776" y="875" type="line"/>
      <point x="776" y="540" type="line"/>
    </contour>
  </outline>
</glyph>
<glyph name="cedilla" format="2">
  <advance width="1200"/>
  <unicode hex="00B8"/>
  <anchor x="600" y="-190" name="_bottom"/>
  <outline>
    <contour>
      <point x="401" y="-306" type="line"/>
      <point x="401" y="-478" type="line"/>
      <point x="640" y="-478" type="line"/>
      <point x="799" y="-346" type="line"/>
      <point x="799" y="-224" type="line"/>
      <point x="640" y="-102" type="line"/>
      <point x="640" y="-30" type="line"/>
      <point x="440" y="-30" type="line"/>
      <point x="440" y="-102" type="line"/>
      <point x="600" y="-226" type="line"/>
      <point x="600" y="-306" type="line"/>
    </contour>
  </outline>
</glyph>
<glyph name="multiply" format="2">
  <advance width="1200"/>
  <unicode hex="00D7"/>
  <outline>
    <contour>
      <point x="820" y="1050" type="line"/>
      <point x="978" y="891" type="line"/>
      <point x="758" y="672" type="line"/>
      <point x="978" y="451" type="line"/>
      <point x="820" y="292" type="line"/>
      <point x="599" y="513" type="line"/>
      <point x="380" y="294" type="line"/>
      <point x="222" y="453" type="line"/>
      <point x="441" y="672" type="line"/>
      <point x="221" y="893" type="line"/>
      <point x="379" y="1051" type="line"/>
      <point x="600" y="830" type="line"/>
    </contour>
  </outline>
</glyph>
<glyph name="eth" format="2">
  <advance width="1200"/>
  <unicode hex="00F0"/>
  <outline>
    <contour>
      <point x="285.45" y="1531.15" type="line"/>
      <point x="558.945" y="1438.09" type="line"/>
      <point x="701.1" y="1584.25" type="line"/>
      <point x="873.15" y="1416.95" type="line"/>
      <point x="758.064" y="1298.62" type="line"/>
      <point x="956.35" y="1091.55" type="line"/>
      <point x="1061.9" y="688.45" type="line"/>
      <point x="1061.9" y="484.3" type="line"/>
      <point x="933.6" y="103.65" type="line"/>
      <point x="600.8" y="-41.85" type="line"/>
      <point x="262.5" y="104.35" type="line"/>
      <point x="122.85" y="480.35" type="line"/>
      <point x="264.95" y="856.4" type="line"/>
      <point x="595.95" y="988.3" type="line"/>
      <point x="785.897" y="898.874" type="line"/>
      <point x="762.794" y="996.232" type="line"/>
      <point x="613.344" y="1143.01" type="line"/>
      <point x="489.7" y="1022.7" type="line"/>
      <point x="317.65" y="1190" type="line"/>
      <point x="399.843" y="1265.78" type="line"/>
      <point x="215.473" y="1325.47" type="line"/>
    </contour>
    <contour>
      <point x="437.66" y="269.86" type="line"/>
      <point x="600.25" y="196.479" type="line"/>
      <point x="751.465" y="269.635" type="line"/>
      <point x="838.339" y="523.65" type="line"/>
      <point x="821.9" y="665.308" type="line"/>
      <point x="588.05" y="775.367" type="line"/>
      <point x="452.05" y="721.217" type="line"/>
      <point x="349.134" y="479.6" type="line"/>
    </contour>
  </outline>
</glyph>
<glyph name="dotlessi" format="2">
  <advance width="1200"/>
  <unicode hex="0131"/>
  <anchor x="600" y="1310" name="top"/>
  <anchor x="600" y="-150" name="bottom"/>
  <outline>
    <contour>
      <point x="204" y="1065" type="line"/>
      <point x="204" y="849" type="line"/>
      <point x="425" y="849" type="line"/>
      <point x="484" y="761" type="line"/>
      <point x="484" y="226" type="line"/>
      <point x="125" y="226" type="line"/>
      <point x="125" y="10" type="line"/>
      <point x="1075" y="10" type="line"/>
      <point x="1075" y="226" type="line"/>
      <point x="716" y="226" type="line"/>
      <point x="716" y="803" type="line"/>
      <point x="539" y="1065" type="line"/>
    </contour>
  </outline>
</glyph>
<glyph name="Eng" format="2">
  <advance width="1200"/>
  <unicode hex="014A"/>
  <anchor x="944" y="1541" name="top"/>
  <outline>
    <component base="N"/>
    <contour>
      <point x="1080" y="349" type="line"/>
      <point x="1080" y="0" type="line"/>
      <point x="737" y="-361" type="line"/>
      <point x="400" y="-361" type="line"/>
      <point x="400" y="-137" type="line"/>
      <point x="641" y="-137" type="line"/>
      <point x="840" y="73" type="line"/>
      <point x="840" y="307" type="line"/>
    </contour>
  </outline>
</glyph>
<glyph name="oe" format="2">
  <advance width="1200"/>
  <unicode hex="0153"/>
  <outline>
    <contour>
      <point x="182" y="1096" type="line"/>
      <point x="547" y="1096" type="line"/>
      <point x="596.909" y="1021.14" type="line"/>
      <point x="669" y="1096" type="line"/>
      <point x="1022" y="1096" type="line"/>
      <point x="1212" y="814" type="line"/>
      <point x="851" y="441" type="line"/>
      <point x="726" y="441" type="line"/>
      <point x="726" y="310" type="line"/>
      <point x="784" y="224" type="line"/>
      <point x="923" y="224" type="line"/>
      <point x="1062" y="368" type="line"/>
      <point x="1190" y="180" type="line"/>
      <point x="1018" y="0" type="line"/>
      <point x="666" y="0" type="line"/>
      <point x="615.515" y="75.3042" type="line"/>
      <point x="543" y="0" type="line"/>
      <point x="180" y="0" type="line"/>
      <point x="0" y="267" type="line"/>
      <point x="0" y="907" type="line"/>
    </contour>
    <contour>
      <point x="240" y="310" type="line"/>
      <point x="299" y="224" type="line"/>
      <point x="449" y="224" type="line"/>
      <point x="486" y="262" type="line"/>
      <point x="486" y="787" type="line"/>
      <point x="428" y="872" type="line"/>
      <point x="278" y="872" type="line"/>
      <point x="240" y="832" type="line"/>
    </contour>
    <contour>
      <point x="726" y="833" type="line"/>
      <point x="726" y="665" type="line"/>
      <point x="757" y="665" type="line"/>
      <point x="924" y="840" type="line"/>
      <point x="902" y="872" type="line"/>
      <point x="765" y="872" type="line"/>
    </contour>
  </outline>
</glyph>
<glyph name="florin" format="2">
  <advance width="1200"/>
  <unicode hex="0192"/>
  <outline>
    <contour>
      <point x="39" y="-128" type="line"/>
      <point x="264" y="103" type="line"/>
      <point x="264" y="680" type="line"/>
      <point x="121" y="680" type="line"/>
      <point x="121" y="906" type="line"/>
      <point x="264" y="906" type="line"/>
      <point x="264" y="1302" type="line"/>
      <point x="481" y="1528" type="line"/>
      <point x="1022" y="1528" type="line"/>
      <point x="1175" y="1306" type="line"/>
      <point x="1015" y="1142" type="line"/>
      <point x="902" y="1305" type="line"/>
      <point x="574" y="1305" type="line"/>
      <point x="500" y="1230" type="line"/>
      <point x="500" y="906" type="line"/>
      <point x="920" y="906" type="line"/>
      <point x="920" y="680" type="line"/>
      <point x="500" y="680" type="line"/>
      <point x="500" y="0" type="line"/>
      <point x="498" y="0" type="line"/>
      <point x="171" y="-330" type="line"/>
    </contour>
  </outline>
</glyph>
<glyph name="circumflex" format="2">
  <advance width="1200"/>
  <unicode hex="02C6"/>
  <anchor x="600" y="1153" name="_top"/>
  <anchor x="600" y="1520" name="_bottom"/>
  <outline>
    <contour>
      <point x="659" y="1518" type="line"/>
      <point x="969" y="1282" type="line"/>
      <point x="856" y="1152" type="line"/>
      <point x="600" y="1315" type="line"/>
      <point x="346" y="1152" type="line"/>
      <point x="231" y="1282" type="line"/>
      <point x="543" y="1518" type="line"/>
    </contour>
  </outline>
</glyph>
<glyph name="caron" format="2">
  <advance width="1200"/>
  <unicode hex="02C7"/>
  <outline>
    <contour>
      <point x="851" y="1616" type="line"/>
      <point x="969" y="1490" type="line"/>
      <point x="661" y="1228" type="line"/>
      <point x="542" y="1228" type="line"/>
      <point x="231" y="1490" type="line"/>
      <point x="356" y="1616" type="line"/>
      <point x="603" y="1433" type="line"/>
    </contour>
  </outline>
</glyph>
<glyph name="dblvlinecomb" format="2">
  <advance width="1200"/>
  <unicode hex="030E"/>
  <anchor x="600" y="1250" name="_top"/>
  <anchor x="600" y="1680" name="_bottom"/>
  <outline>
    <contour>
      <point x="680" y="1250" type="line"/>
      <point x="920" y="1250" type="line"/>
      <point x="920" y="1680" type="line"/>
      <point x="680" y="1680" type="line"/>
    </contour>
    <contour>
      <point x="280" y="1250" type="line"/>
      <point x="520" y="1250" type="line"/>
      <point x="520" y="1680" type="line"/>
      <point x="280" y="1680" type="line"/>
    </contour>
  </outline>
</glyph>
<glyph name="dblgravecomb" format="2">
  <advance width="1200"/>
  <unicode hex="030F"/>
  <anchor x="573" y="1240" name="_top"/>
  <anchor x="573" y="1760" name="_bottom"/>
  <outline>
    <contour>
      <point x="773.67" y="1761.61" type="line"/>
      <point x="574.924" y="1674.31" type="line"/>
      <point x="834.128" y="1231.09" type="line"/>
      <point x="980.424" y="1289.24" type="line"/>
    </contour>
    <contour>
      <point x="351.276" y="1762.02" type="line"/>
      <point x="165.913" y="1649.41" type="line"/>
      <point x="479.43" y="1242.73" type="line"/>
      <point x="617.488" y="1319.75" type="line"/>
    </contour>
  </outline>
</glyph>
<glyph name="mu" format="2">
  <advance width="1200"/>
  <unicode hex="03BC"/>
  <unicode hex="00B5"/>
  <outline>
    <contour>
      <point x="800" y="1096" type="line"/>
      <point x="1040" y="1096" type="line"/>
      <point x="1040" y="0" type="line"/>
      <point x="803" y="0" type="line"/>
      <point x="803" y="65" type="line"/>
      <point x="692" y="0" type="line"/>
      <point x="400" y="0" type="line"/>
      <point x="386" y="26" type="line"/>
      <point x="386" y="-428" type="line"/>
      <point x="160" y="-428" type="line"/>
      <point x="160" y="1096" type="line"/>
      <point x="400" y="1096" type="line"/>
      <point x="400" y="310" type="line"/>
      <point x="458" y="225" type="line"/>
      <point x="765" y="225" type="line"/>
      <point x="800" y="262" type="line"/>
    </contour>
  </outline>
</glyph>
<glyph name="Germandbls" format="2">
  <advance width="1200"/>
  <unicode hex="1E9E"/>
  <outline>
    <contour>
      <point x="461.997" y="1473" type="line"/>
      <point x="1081" y="1473" type="line"/>
      <point x="1081" y="1250.92" type="line"/>
      <point x="739.763" y="895" type="line"/>
      <point x="845.334" y="895" type="line"/>
      <point x="1080" y="545.174" type="line"/>
      <point x="1080" y="197.772" type="line"/>
      <point x="887.911" y="0" type="line"/>
      <point x="570" y="0" type="line"/>
      <point x="570" y="224" type="line"/>
      <point x="794.595" y="224" type="line"/>
      <point x="840" y="272.744" type="line"/>
      <point x="840" y="503.734" type="line"/>
      <point x="726.774" y="671" type="line"/>
      <point x="419" y="671" type="line"/>
      <point x="419" y="888.17" type="line"/>
      <point x="767.716" y="1249" type="line"/>
      <point x="557.092" y="1249" type="line"/>
      <point x="360" y="1042.95" type="line"/>
      <point x="360" y="0" type="line"/>
      <point x="120" y="0" type="line"/>
      <point x="120" y="1118.14" type="line"/>
    </contour>
  </outline>
</glyph>
<glyph name="endash" format="2">
  <advance width="1200"/>
  <unicode hex="2013"/>
  <outline>
    <contour>
      <point x="1140" y="560" type="line"/>
      <point x="60" y="560" type="line"/>
      <point x="60" y="784" type="line"/>
      <point x="1140" y="784" type="line"/>
    </contour>
  </outline>
</glyph>
<glyph name="quoteleft" format="2">
  <advance width="1200"/>
  <unicode hex="2018"/>
  <anchor x="580" y="1757" name="_bottom"/>
  <anchor x="580" y="1056" name="_top"/>
  <outline>
    <contour>
      <point x="622" y="1757" type="line"/>
      <point x="744" y="1568" type="line"/>
      <point x="640" y="1458" type="line"/>
      <point x="640" y="1399" type="line"/>
      <point x="760" y="1399" type="line"/>
      <point x="760" y="1056" type="line"/>
      <point x="400" y="1056" type="line"/>
      <point x="400" y="1528" type="line"/>
    </contour>
  </outline>
</glyph>
<glyph name="quotesinglbase" format="2">
  <advance width="1200"/>
  <unicode hex="201A"/>
  <outline>
    <contour>
      <point x="420" y="345" type="line"/>
      <point x="780" y="345" type="line"/>
      <point x="780" y="-133" type="line"/>
      <point x="562" y="-359" type="line"/>
      <point x="436" y="-166" type="line"/>
      <point x="540" y="-57" type="line"/>
      <point x="540" y="0" type="line"/>
      <point x="420" y="0" type="line"/>
    </contour>
  </outline>
</glyph>
<glyph name="quotedblright" format="2">
  <advance width="1200"/>
  <unicode hex="201D"/>
  <outline>
    <contour>
      <point x="180" y="1632" type="line"/>
      <point x="540" y="1632" type="line"/>
      <point x="540" y="1154" type="line"/>
      <point x="322" y="928" type="line"/>
      <point x="196" y="1121" type="line"/>
      <point x="300" y="1230" type="line"/>
      <point x="300" y="1287" type="line"/>
      <point x="180" y="1287" type="line"/>
    </contour>
    <contour>
      <point x="660" y="1632" type="line"/>
      <point x="1020" y="1632" type="line"/>
      <point x="1020" y="1154" type="line"/>
      <point x="802" y="928" type="line"/>
      <point x="676" y="1121" type="line"/>
      <point x="780" y="1230" type="line"/>
      <point x="780" y="1287" type="line"/>
      <point x="660" y="1287" type="line"/>
    </contour>
  </outline>
</glyph>
<glyph name="bullet" format="2">
  <advance width="1200"/>
  <unicode hex="2022"/>
  <outline>
    <contour>
      <point x="520" y="864" type="line"/>
      <point x="680" y="864" type="line"/>
      <point x="794" y="753" type="line"/>
      <point x="794" y="590" type="line"/>
      <point x="680" y="480" type="line"/>
      <point x="520" y="480" type="line"/>
      <point x="409" y="590" type="line"/>
      <point x="409" y="753" type="line"/>
    </contour>
  </outline>
</glyph>
<glyph name="ellipsis" format="2">
  <advance width="1200"/>
  <unicode hex="2026"/>
  <outline>
    <contour>
      <point x="850" y="0" type="line"/>
      <point x="850" y="335" type="line"/>
      <point x="1201" y="335" type="line"/>
      <point x="1201" y="0" type="line"/>
    </contour>
    <contour>
      <point x="424" y="0" type="line"/>
      <point x="424" y="335" type="line"/>
      <point x="776" y="335" type="line"/>
      <point x="776" y="0" type="line"/>
    </contour>
    <contour>
      <point x="0" y="0" type="line"/>
      <point x="0" y="335" type="line"/>
      <point x="351" y="335" type="line"/>
      <point x="351" y="0" type="line"/>
    </contour>
  </outline>
</glyph>
<glyph name="perthousand" format="2">
  <advance width="1200"/>
  <unicode hex="2030"/>
  <outline>
    <contour>
      <point x="214" y="1207" type="line"/>
      <point x="381" y="1207" type="line"/>
      <point x="500" y="1091" type="line"/>
      <point x="500" y="922" type="line"/>
      <point x="381" y="807" type="line"/>
      <point x="214" y="807" type="line"/>
      <point x="100" y="922" type="line"/>
      <point x="100" y="1091" type="line"/>
    </contour>
    <contour>
      <point x="880" y="1353" type="line"/>
      <point x="1120" y="1353" type="line"/>
      <point x="1120" y="1096" type="line"/>
      <point x="320" y="273" type="line"/>
      <point x="320" y="0" type="line"/>
      <point x="80" y="0" type="line"/>
      <point x="80" y="344" type="line"/>
      <point x="880" y="1167" type="line"/>
    </contour>
    <contour>
      <point x="800" y="637" type="line"/>
      <point x="800" y="468" type="line"/>
      <point x="914" y="353" type="line"/>
      <point x="1081" y="353" type="line"/>
      <point x="1200" y="468" type="line"/>
      <point x="1200" y="637" type="line"/>
      <point x="1081" y="753" type="line"/>
      <point x="914" y="753" type="line"/>
    </contour>
    <contour>
      <point x="438" y="283" type="line"/>
      <point x="438" y="114" type="line"/>
      <point x="552" y="-1" type="line"/>
      <point x="719" y="-1" type="line"/>
      <point x="838" y="114" type="line"/>
      <point x="838" y="283" type="line"/>
      <point x="719" y="399" type="line"/>
      <point x="552" y="399" type="line"/>
    </contour>
  </outline>
</glyph>
<glyph name="guilsinglright" format="2">
  <advance width="1200"/>
  <unicode hex="203A"/>
  <outline>
    <contour>
      <point x="619" y="591" type="line"/>
      <point x="340" y="1020" type="line"/>
      <point x="477" y="1103" type="line"/>
      <point x="844" y="653" type="line"/>
      <point x="844" y="527" type="line"/>
      <point x="477" y="81" type="line"/>
      <point x="340" y="163" type="line"/>
    </contour>
  </outline>
</glyph>
<glyph name="universal" format="2">
  <advance width="1200"/>
  <unicode hex="2200"/>
  <outline>
    <contour>
      <point x="160" y="342" type="line"/>
      <point x="160" y="1374" type="line"/>
      <point x="400" y="1374" type="line"/>
      <point x="400" y="784" type="line"/>
      <point x="800" y="784" type="line"/>
      <point x="800" y="1374" type="line"/>
      <point x="1040" y="1374" type="line"/>
      <point x="1040" y="-17" type="line"/>
      <point x="507" y="-17" type="line"/>
    </contour>
    <contour>
      <point x="400" y="412" type="line"/>
      <point x="598" y="207" type="line"/>
      <point x="800" y="207" type="line"/>
      <point x="800" y="560" type="line"/>
      <point x="400" y="560" type="line"/>
    </contour>
  </outline>
</glyph>
<glyph name="product" format="2">
  <advance width="1200"/>
  <unicode hex="220F"/>
  <outline>
    <contour>
      <point x="1145" y="1414" type="line"/>
      <point x="1145" y="1221" type="line"/>
      <point x="995" y="1221" type="line"/>
      <point x="995" y="-396" type="line"/>
      <point x="787" y="-424" type="line"/>
      <point x="787" y="1221" type="line"/>
      <point x="416" y="1221" type="line"/>
      <point x="416" y="-396" type="line"/>
      <point x="208" y="-424" type="line"/>
      <point x="208" y="1221" type="line"/>
      <point x="55" y="1221" type="line"/>
      <point x="55" y="1414" type="line"/>
    </contour>
  </outline>
</glyph>
<glyph name="minus" format="2">
  <advance width="1200"/>
  <unicode hex="2212"/>
  <outline>
    <contour>
      <point x="1000" y="737" type="line"/>
      <point x="1000" y="513" type="line"/>
      <point x="200" y="513" type="line"/>
      <point x="200" y="737" type="line"/>
    </contour>
  </outline>
</glyph>
<glyph name="uni2219" format="2">
  <advance width="1200"/>
  <unicode hex="2219"/>
  <outline>
    <contour>
      <point x="425" y="540" type="line"/>
      <point x="425" y="875" type="line"/>
      <point x="776" y="875" type="line"/>
      <point x="776" y="540" type="line"/>
    </contour>
  </outline>
</glyph>
<glyph name="notequal" format="2">
  <advance width="1200"/>
  <unicode hex="2260"/>
  <outline>
    <contour>
      <point x="1010" y="918" type="line"/>
      <point x="1010" y="694" type="line"/>
      <point x="731.64" y="694" type="line"/>
      <point x="661.47" y="550" type="line"/>
      <point x="1010" y="550" type="line"/>
      <point x="1010" y="326" type="line"/>
      <point x="552.318" y="326" type="line"/>
      <point x="392" y="-3" type="line"/>
      <point x="191" y="92" type="line"/>
      <point x="305.025" y="326" type="line"/>
      <point x="190" y="326" type="line"/>
      <point x="190" y="550" type="line"/>
      <point x="414.178" y="550" type="line"/>
      <point x="484.347" y="694" type="line"/>
      <point x="190" y="694" type="line"/>
      <point x="190" y="918" type="line"/>
      <point x="593.5" y="918" type="line"/>
      <point x="766" y="1272" type="line"/>
      <point x="967" y="1177" type="line"/>
      <point x="840.792" y="918" type="line"/>
    </contour>
  </outline>
</glyph>
<glyph name="lozenge" format="2">
  <advance width="1200"/>
  <unicode hex="25CA"/>
  <outline>
    <contour>
      <point x="699" y="1414" type="line"/>
      <point x="1096" y="689" type="line"/>
      <point x="699" y="-40" type="line"/>
      <point x="495" y="-40" type="line"/>
      <point x="105" y="686" type="line"/>
      <point x="495" y="1414" type="line"/>
    </contour>
    <contour>
      <point x="604" y="1180" type="line"/>
      <point x="596" y="1180" type="line"/>
      <point x="334" y="685" type="line"/>
      <point x="596" y="187" type="line"/>
      <point x="604" y="187" type="line"/>
      <point x="866" y="685" type="line"/>
    </contour>
  </outline>
</glyph>
<glyph name="uniEE02" format="2">
  <advance width="1200"/>
  <unicode hex="EE02"/>
  <outline>
    <contour>
      <point x="-10" y="-86" type="line"/>
      <point x="941" y="-86" type="line"/>
      <point x="941" y="1486" type="line"/>
      <point x="-10" y="1486" type="line"/>
      <point x="-10" y="1631" type="line"/>
      <point x="1100" y="1631" type="line"/>
      <point x="1100" y="-231" type="line"/>
      <point x="-10" y="-231" type="line"/>
    </contour>
  </outline>
</glyph>
<glyph name="uniEE03" format="2">
  <advance width="1200"/>
  <unicode hex="EE03"/>
  <outline>
    <contour>
      <point x="489" y="1274" type="line"/>
      <point x="1210" y="1274" type="line"/>
      <point x="1210" y="102" type="line"/>
      <point x="489" y="102" type="line"/>
    </contour>
    <contour>
      <point x="1210" y="-86" type="line"/>
      <point x="1210" y="-231" type="line"/>
      <point x="100" y="-231" type="line"/>
      <point x="100" y="1631" type="line"/>
      <point x="1210" y="1631" type="line"/>
      <point x="1210" y="1486" type="line"/>
      <point x="259" y="1486" type="line"/>
      <point x="259" y="-86" type="line"/>
    </contour>
  </outline>
</glyph>
<glyph name=".notdef" format="2">
  <advance width="1200"/>
  <outline>
    <component base="question" yOffset="-30"/>
    <contour>
      <point x="980" y="1482" type="line"/>
      <point x="980" y="1592" type="line"/>
      <point x="220" y="1592" type="line"/>
      <point x="220" y="1504" type="line"/>
      <point x="80" y="1359" type="line"/>
      <point x="80" y="1732" type="line"/>
      <point x="1120" y="1732" type="line"/>
      <point x="1120" y="1271" type="line"/>
    </contour>
    <contour>
      <point x="80" y="150" type="line"/>
      <point x="80" y="750" type="line"/>
      <point x="220" y="750" type="line"/>
      <point x="220" y="290" type="line"/>
      <point x="300" y="290" type="line"/>
      <point x="300" y="150" type="line"/>
    </contour>
    <contour>
      <point x="980" y="584" type="line"/>
      <point x="1120" y="730" type="line"/>
      <point x="1120" y="150" type="line"/>
      <point x="900" y="150" type="line"/>
      <point x="900" y="290" type="line"/>
      <point x="980" y="290" type="line"/>
    </contour>
  </outline>
</glyph>
<glyph name="ampersand_ampersand.liga" format="2">
  <advance width="1200"/>
  <outline>
    <contour>
      <point x="-682" y="1473" type="line"/>
      <point x="-207" y="1473" type="line"/>
      <point x="-77" y="1284" type="line"/>
      <point x="-77" y="1158" type="line"/>
      <point x="-393" y="829" type="line"/>
      <point x="-171.956" y="498.045" type="line"/>
      <point x="173" y="855" type="line"/>
      <point x="-12" y="1128" type="line"/>
      <point x="-12" y="1279" type="line"/>
      <point x="173" y="1473" type="line"/>
      <point x="648" y="1473" type="line"/>
      <point x="778" y="1284" type="line"/>
      <point x="778" y="1158" type="line"/>
      <point x="462" y="829" type="line"/>
      <point x="696" y="478" type="line"/>
      <point x="745" y="530" type="line"/>
      <point x="708" y="530" type="line"/>
      <point x="708" y="754" type="line"/>
      <point x="1028" y="754" type="line"/>
      <point x="1028" y="496" type="line"/>
      <point x="824" y="287" type="line"/>
      <point x="1022" y="0" type="line"/>
      <point x="751" y="0" type="line"/>
      <point x="665" y="125" type="line"/>
      <point x="547" y="0" type="line"/>
      <point x="-26" y="0" type="line"/>
      <point x="-142.467" y="171.509" type="line"/>
      <point x="-308" y="0" type="line"/>
      <point x="-881" y="0" type="line"/>
      <point x="-1027" y="215" type="line"/>
      <point x="-1027" y="498" type="line"/>
      <point x="-682" y="855" type="line"/>
      <point x="-867" y="1128" type="line"/>
      <point x="-867" y="1279" type="line"/>
    </contour>
    <contour>
      <point x="-640" y="1191" type="line"/>
      <point x="-523" y="1020" type="line"/>
      <point x="-313" y="1234" type="line"/>
      <point x="-322" y="1249" type="line"/>
      <point x="-585" y="1249" type="line"/>
    </contour>
    <contour>
      <point x="215" y="1191" type="line"/>
      <point x="332" y="1020" type="line"/>
      <point x="542" y="1234" type="line"/>
      <point x="533" y="1249" type="line"/>
      <point x="270" y="1249" type="line"/>
    </contour>
    <contour>
      <point x="-787" y="260" type="line"/>
      <point x="-763" y="224" type="line"/>
      <point x="-402" y="224" type="line"/>
      <point x="-317" y="312" type="line"/>
      <point x="-556" y="665" type="line"/>
      <point x="-787" y="423" type="line"/>
    </contour>
    <contour>
      <point x="92" y="224" type="line"/>
      <point x="453" y="224" type="line"/>
      <point x="538" y="312" type="line"/>
      <point x="299" y="665" type="line"/>
      <point x="3" y="358" type="line"/>
    </contour>
  </outline>
</glyph>
<glyph name="backslash_slash.liga" format="2">
  <advance width="1200"/>
  <outline>
    <component base="backslash" xOffset="-1200"/>
    <component base="slash"/>
    <contour>
      <point x="-258" y="-292" type="line"/>
      <point x="258" y="-292" type="line"/>
      <point x="258" y="-68" type="line"/>
      <point x="-258" y="-68" type="line"/>
    </contour>
  </outline>
</glyph>
<glyph name="bracketleft_bracketright.cv27" format="2">
  <advance width="1200"/>
  <outline>
    <contour>
      <point x="-1000" y="-329" type="line"/>
      <point x="-1000" y="1680" type="line"/>
      <point x="1000" y="1680" type="line"/>
      <point x="1000" y="-329" type="line"/>
    </contour>
    <contour>
      <point x="-760" y="-88" type="line"/>
      <point x="760" y="-88" type="line"/>
      <point x="760" y="1439" type="line"/>
      <point x="-760" y="1439" type="line"/>
    </contour>
  </outline>
</glyph>
<glyph name="equal_equal_equal.liga" format="2">
  <advance width="1200"/>
  <outline>
    <contour>
      <point x="910" y="678" type="line"/>
      <point x="910" y="438" type="line"/>
      <point x="-2110" y="438" type="line"/>
      <point x="-2110" y="678" type="line"/>
    </contour>
    <contour>
      <point x="910" y="310" type="line"/>
      <point x="910" y="70" type="line"/>
      <point x="-2110" y="70" type="line"/>
      <point x="-2110" y="310" type="line"/>
    </contour>
    <contour>
      <point x="910" y="1046" type="line"/>
      <point x="910" y="806" type="line"/>
      <point x="-2110" y="806" type="line"/>
      <point x="-2110" y="1046" type="line"/>
    </contour>
  </outline>
</glyph>
<glyph name="exclam_equal_middle.seq" format="2">
  <advance width="1200"/>
  <outline>
    <component base="exclam"/>
    <contour>
      <point x="-20" y="690" type="line"/>
      <point x="-20" y="930" type="line"/>
      <point x="158" y="930" type="line"/>
      <point x="158" y="690" type="line"/>
    </contour>
    <contour>
      <point x="-20" y="322" type="line"/>
      <point x="-20" y="562" type="line"/>
      <point x="158" y="562" type="line"/>
      <point x="158" y="322" type="line"/>
    </contour>
    <contour>
      <point x="1042" y="690" type="line"/>
      <point x="1042" y="930" type="line"/>
      <point x="1220" y="930" type="line"/>
      <point x="1220" y="690" type="line"/>
    </contour>
    <contour>
      <point x="1042" y="322" type="line"/>
      <point x="1042" y="562" type="line"/>
      <point x="1220" y="562" type="line"/>
      <point x="1220" y="322" type="line"/>
    </contour>
  </outline>
</glyph>
<glyph name="hyphen.lc" format="2">
  <advance width="1200"/>
  <outline>
    <contour>
      <point x="980" y="480" type="line"/>
      <point x="220" y="480" type="line"/>
      <point x="220" y="704" type="line"/>
      <point x="980" y="704" type="line"/>
    </contour>
  </outline>
</glyph>
<glyph name="less_dollar.liga" format="2">
  <advance width="1200"/>
  <outline>
    <contour>
      <point x="417" y="1537" type="line"/>
      <point x="581" y="1537" type="line"/>
      <point x="581" y="1391" type="line"/>
      <point x="799" y="1391" type="line"/>
      <point x="936" y="1184" type="line"/>
      <point x="775" y="1026" type="line"/>
      <point x="679" y="1167" type="line"/>
      <point x="581" y="1167" type="line"/>
      <point x="581" y="809" type="line"/>
      <point x="817" y="809" type="line"/>
      <point x="977" y="569" type="line"/>
      <point x="977" y="169" type="line"/>
      <point x="814" y="0" type="line"/>
      <point x="581" y="0" type="line"/>
      <point x="581" y="-144" type="line"/>
      <point x="417" y="-144" type="line"/>
      <point x="417" y="0" type="line"/>
      <point x="-345" y="0" type="line"/>
      <point x="-977" y="614" type="line"/>
      <point x="-977" y="733" type="line"/>
      <point x="-363" y="1327" type="line"/>
      <point x="-206" y="1164" type="line"/>
      <point x="-716" y="674" type="line"/>
      <point x="-252" y="224" type="line"/>
      <point x="417" y="224" type="line"/>
      <point x="417" y="585" type="line"/>
      <point x="196" y="585" type="line"/>
      <point x="17" y="851" type="line"/>
      <point x="17" y="1201" type="line"/>
      <point x="200" y="1391" type="line"/>
      <point x="417" y="1391" type="line"/>
    </contour>
    <contour>
      <point x="316" y="809" type="line"/>
      <point x="417" y="809" type="line"/>
      <point x="417" y="1167" type="line"/>
      <point x="293" y="1167" type="line"/>
      <point x="257" y="1128" type="line"/>
      <point x="257" y="896" type="line"/>
    </contour>
    <contour>
      <point x="581" y="224" type="line"/>
      <point x="714" y="224" type="line"/>
      <point x="737" y="243" type="line"/>
      <point x="737" y="528" type="line"/>
      <point x="696" y="585" type="line"/>
      <point x="581" y="585" type="line"/>
    </contour>
  </outline>
</glyph>
<glyph name="less_dollar_greater.liga" format="2">
  <advance width="1200"/>
  <outline>
    <contour>
      <point x="-867" y="1391" type="line"/>
      <point x="-650" y="1391" type="line"/>
      <point x="-650" y="1537" type="line"/>
      <point x="-486" y="1537" type="line"/>
      <point x="-486" y="1391" type="line"/>
      <point x="162" y="1391" type="line"/>
      <point x="844" y="733" type="line"/>
      <point x="844" y="614" type="line"/>
      <point x="226" y="17" type="line"/>
      <point x="74" y="179" type="line"/>
      <point x="583" y="674" type="line"/>
      <point x="70" y="1167" type="line"/>
      <point x="-486" y="1167" type="line"/>
      <point x="-486" y="809" type="line"/>
      <point x="-250" y="809" type="line"/>
      <point x="-90" y="569" type="line"/>
      <point x="-90" y="169" type="line"/>
      <point x="-253" y="0" type="line"/>
      <point x="-486" y="0" type="line"/>
      <point x="-486" y="-144" type="line"/>
      <point x="-650" y="-144" type="line"/>
      <point x="-650" y="0" type="line"/>
      <point x="-1412" y="0" type="line"/>
      <point x="-2044" y="614" type="line"/>
      <point x="-2044" y="733" type="line"/>
      <point x="-1430" y="1327" type="line"/>
      <point x="-1273" y="1164" type="line"/>
      <point x="-1783" y="674" type="line"/>
      <point x="-1319" y="224" type="line"/>
      <point x="-650" y="224" type="line"/>
      <point x="-650" y="585" type="line"/>
      <point x="-871" y="585" type="line"/>
      <point x="-1050" y="851" type="line"/>
      <point x="-1050" y="1201" type="line"/>
    </contour>
    <contour>
      <point x="-751" y="809" type="line"/>
      <point x="-650" y="809" type="line"/>
      <point x="-650" y="1167" type="line"/>
      <point x="-774" y="1167" type="line"/>
      <point x="-810" y="1128" type="line"/>
      <point x="-810" y="896" type="line"/>
    </contour>
    <contour>
      <point x="-486" y="224" type="line"/>
      <point x="-353" y="224" type="line"/>
      <point x="-330" y="243" type="line"/>
      <point x="-330" y="528" type="line"/>
      <point x="-371" y="585" type="line"/>
      <point x="-486" y="585" type="line"/>
    </contour>
  </outline>
</glyph>
<glyph name="numbersign_equal.liga" format="2">
  <advance width="1200"/>
  <outline>
    <component base="equal" xOffset="29" yOffset="72"/>
    <contour>
      <point x="-627" y="628" type="line"/>
      <point x="-412" y="628" type="line"/>
      <point x="-389" y="770" type="line"/>
      <point x="-601" y="770" type="line"/>
    </contour>
    <contour>
      <point x="35" y="995" type="line"/>
      <point x="35" y="770" type="line"/>
      <point x="-159" y="770" type="line"/>
      <point x="-185" y="628" type="line"/>
      <point x="35" y="628" type="line"/>
      <point x="35" y="403" type="line"/>
      <point x="-225" y="403" type="line"/>
      <point x="-305" y="0" type="line" name=".hr01"/>
      <point x="-530" y="0" type="line"/>
      <point x="-456" y="403" type="line"/>
      <point x="-667" y="403" type="line"/>
      <point x="-742" y="0" type="line"/>
      <point x="-971" y="0" type="line"/>
      <point x="-893" y="403" type="line"/>
      <point x="-1046" y="403" type="line"/>
      <point x="-1046" y="628" type="line"/>
      <point x="-852" y="628" type="line"/>
      <point x="-827" y="770" type="line"/>
      <point x="-980" y="770" type="line"/>
      <point x="-980" y="995" type="line"/>
      <point x="-786" y="995" type="line"/>
      <point x="-698" y="1473" type="line" name=".hr02"/>
      <point x="-472" y="1473" type="line"/>
      <point x="-561" y="995" type="line"/>
      <point x="-344" y="995" type="line"/>
      <point x="-259" y="1473" type="line"/>
      <point x="-30" y="1473" type="line"/>
      <point x="-119" y="995" type="line"/>
    </contour>
  </outline>
</glyph>
<glyph name="numbersign_middle.seq" format="2">
  <advance width="1200"/>
  <outline>
    <contour>
      <point x="453" y="560" type="line"/>
      <point x="668" y="560" type="line"/>
      <point x="731" y="913" type="line"/>
      <point x="519" y="913" type="line"/>
    </contour>
    <contour>
      <point x="1200" y="1138" type="line"/>
      <point x="1200" y="913" type="line"/>
      <point x="961" y="913" type="line"/>
      <point x="895" y="560" type="line"/>
      <point x="1200" y="560" type="line"/>
      <point x="1200" y="335" type="line"/>
      <point x="855" y="335" type="line"/>
      <point x="790" y="0" type="line"/>
      <point x="565" y="0" type="line"/>
      <point x="624" y="335" type="line"/>
      <point x="413" y="335" type="line"/>
      <point x="353" y="0" type="line"/>
      <point x="124" y="0" type="line"/>
      <point x="187" y="335" type="line"/>
      <point x="0" y="335" type="line"/>
      <point x="0" y="560" type="line"/>
      <point x="228" y="560" type="line"/>
      <point x="293" y="913" type="line"/>
      <point x="0" y="913" type="line"/>
      <point x="0" y="1138" type="line"/>
      <point x="334" y="1138" type="line"/>
      <point x="397" y="1473" type="line"/>
      <point x="623" y="1473" type="line"/>
      <point x="559" y="1138" type="line"/>
      <point x="776" y="1138" type="line"/>
      <point x="836" y="1473" type="line"/>
      <point x="1065" y="1473" type="line"/>
      <point x="1001" y="1138" type="line"/>
    </contour>
  </outline>
</glyph>
<glyph name="numbersign_start.seq" format="2">
  <advance width="1200"/>
  <outline>
    <contour>
      <point x="453" y="560" type="line"/>
      <point x="668" y="560" type="line"/>
      <point x="731" y="913" type="line"/>
      <point x="519" y="913" type="line"/>
    </contour>
    <contour>
      <point x="1200" y="1138" type="line"/>
      <point x="1200" y="913" type="line"/>
      <point x="961" y="913" type="line"/>
      <point x="895" y="560" type="line"/>
      <point x="1200" y="560" type="line"/>
      <point x="1200" y="335" type="line"/>
      <point x="855" y="335" type="line"/>
      <point x="790" y="0" type="line"/>
      <point x="565" y="0" type="line"/>
      <point x="624" y="335" type="line"/>
      <point x="413" y="335" type="line"/>
      <point x="353" y="0" type="line"/>
      <point x="124" y="0" type="line"/>
      <point x="187" y="335" type="line"/>
      <point x="34" y="335" type="line"/>
      <point x="34" y="560" type="line"/>
      <point x="228" y="560" type="line"/>
      <point x="293" y="913" type="line"/>
      <point x="140" y="913" type="line"/>
      <point x="140" y="1138" type="line"/>
      <point x="334" y="1138" type="line"/>
      <point x="397" y="1473" type="line"/>
      <point x="623" y="1473" type="line"/>
      <point x="559" y="1138" type="line"/>
      <point x="776" y="1138" type="line"/>
      <point x="836" y="1473" type="line"/>
      <point x="1065" y="1473" type="line"/>
      <point x="1001" y="1138" type="line"/>
    </contour>
  </outline>
</glyph>
<glyph name="numbersign_underscore.liga" format="2">
  <advance width="1200"/>
  <outline>
    <component base="underscore" xScale="1.59586" yScale="1" xOffset="-702"/>
    <contour>
      <point x="-762" y="560" type="line"/>
      <point x="-547" y="560" type="line"/>
      <point x="-484" y="913" type="line"/>
      <point x="-696" y="913" type="line"/>
    </contour>
    <contour>
      <point x="-60" y="1138" type="line"/>
      <point x="-60" y="913" type="line"/>
      <point x="-254" y="913" type="line"/>
      <point x="-320" y="560" type="line"/>
      <point x="-166" y="560" type="line"/>
      <point x="-166" y="335" type="line" name=".hr01"/>
      <point x="-360" y="335" type="line"/>
      <point x="-499" y="-384" type="line"/>
      <point x="-724" y="-384" type="line"/>
      <point x="-591" y="335" type="line"/>
      <point x="-802" y="335" type="line"/>
      <point x="-862" y="0" type="line" name=".hr02"/>
      <point x="-1091" y="0" type="line"/>
      <point x="-1028" y="335" type="line" name=".hr03"/>
      <point x="-1181" y="335" type="line"/>
      <point x="-1181" y="560" type="line"/>
      <point x="-987" y="560" type="line"/>
      <point x="-922" y="913" type="line"/>
      <point x="-1075" y="913" type="line"/>
      <point x="-1075" y="1138" type="line"/>
      <point x="-881" y="1138" type="line"/>
      <point x="-818" y="1473" type="line" name=".hr04"/>
      <point x="-592" y="1473" type="line"/>
      <point x="-656" y="1138" type="line" name=".hr05"/>
      <point x="-439" y="1138" type="line"/>
      <point x="-379" y="1473" type="line" name=".hr06"/>
      <point x="-150" y="1473" type="line"/>
      <point x="-214" y="1138" type="line" name=".hr07"/>
    </contour>
  </outline>
</glyph>
<glyph name="numbersign_underscore_parenleft.liga" format="2">
  <advance width="1200"/>
  <outline>
    <component base="parenleft" xOffset="-165" yOffset="-1"/>
    <contour>
      <point x="-1583" y="560" type="line"/>
      <point x="-1368" y="560" type="line"/>
      <point x="-1305" y="913" type="line"/>
      <point x="-1517" y="913" type="line"/>
    </contour>
    <contour>
      <point x="-881" y="1138" type="line"/>
      <point x="-881" y="913" type="line"/>
      <point x="-1075" y="913" type="line"/>
      <point x="-1141" y="560" type="line"/>
      <point x="-987" y="560" type="line"/>
      <point x="-987" y="335" type="line" name=".hr01"/>
      <point x="-1181" y="335" type="line"/>
      <point x="-1287" y="-227" type="line"/>
      <point x="614" y="-227" type="line"/>
      <point x="614" y="-451" type="line"/>
      <point x="-1554" y="-451" type="line"/>
      <point x="-1412" y="335" type="line"/>
      <point x="-1623" y="335" type="line"/>
      <point x="-1683" y="0" type="line" name=".hr02"/>
      <point x="-1912" y="0" type="line"/>
      <point x="-1849" y="335" type="line" name=".hr03"/>
      <point x="-2002" y="335" type="line"/>
      <point x="-2002" y="560" type="line"/>
      <point x="-1808" y="560" type="line"/>
      <point x="-1743" y="913" type="line"/>
      <point x="-1896" y="913" type="line"/>
      <point x="-1896" y="1138" type="line"/>
      <point x="-1702" y="1138" type="line"/>
      <point x="-1639" y="1473" type="line" name=".hr04"/>
      <point x="-1413" y="1473" type="line"/>
      <point x="-1477" y="1138" type="line" name=".hr05"/>
      <point x="-1260" y="1138" type="line"/>
      <point x="-1200" y="1473" type="line" name=".hr06"/>
      <point x="-971" y="1473" type="line"/>
      <point x="-1035" y="1138" type="line" name=".hr07"/>
    </contour>
  </outline>
</glyph>
<glyph name="plus_greater.liga" format="2">
  <advance width="1200"/>
  <outline>
    <component base="greater" xOffset="-18"/>
    <contour>
      <point x="-624" y="1095" type="line"/>
      <point x="-400" y="1095" type="line"/>
      <point x="-400" y="784" type="line"/>
      <point x="792" y="784" type="line"/>
      <point x="792" y="560" type="line"/>
      <point x="-400" y="560" type="line"/>
      <point x="-400" y="250" type="line"/>
      <point x="-624" y="250" type="line"/>
      <point x="-624" y="560" type="line"/>
      <point x="-936" y="560" type="line"/>
      <point x="-936" y="784" type="line"/>
      <point x="-624" y="784" type="line"/>
    </contour>
  </outline>
</glyph>
<glyph name="plus_plus.liga" format="2">
  <advance width="1200"/>
  <outline>
    <contour>
      <point x="-712" y="1095" type="line"/>
      <point x="-488" y="1095" type="line"/>
      <point x="-488" y="784" type="line"/>
      <point x="488" y="784" type="line"/>
      <point x="488" y="1095" type="line"/>
      <point x="712" y="1095" type="line"/>
      <point x="712" y="784" type="line"/>
      <point x="1024" y="784" type="line"/>
      <point x="1024" y="560" type="line"/>
      <point x="712" y="560" type="line"/>
      <point x="712" y="250" type="line"/>
      <point x="488" y="250" type="line"/>
      <point x="488" y="560" type="line"/>
      <point x="-488" y="560" type="line"/>
      <point x="-488" y="250" type="line"/>
      <point x="-712" y="250" type="line"/>
      <point x="-712" y="560" type="line"/>
      <point x="-1024" y="560" type="line"/>
      <point x="-1024" y="784" type="line"/>
      <point x="-712" y="784" type="line"/>
    </contour>
  </outline>
</glyph>
<glyph name="slash_greater.liga" format="2">
  <advance width="1200"/>
  <outline>
    <contour>
      <point x="-754" y="-266" type="line"/>
      <point x="-948" y="-181" type="line"/>
      <point x="-42" y="1681" type="line"/>
      <point x="148" y="1586" type="line"/>
      <point x="41" y="1366" type="line"/>
      <point x="1066" y="732" type="line"/>
      <point x="1066" y="522" type="line"/>
      <point x="250" y="9" type="line"/>
      <point x="114" y="186" type="line"/>
      <point x="816" y="625" type="line"/>
      <point x="-55" y="1170" type="line"/>
    </contour>
  </outline>
</glyph>
<glyph name="underscore_end.seq" format="2">
  <advance width="1200"/>
  <outline>
    <contour>
      <point x="-20" y="-421" type="line"/>
      <point x="-20" y="-181" type="line"/>
      <point x="1100" y="-181" type="line"/>
      <point x="1100" y="-421" type="line"/>
    </contour>
  </outline>
</glyph>
